<svg width="24" height="24" viewBox="0 0 24 24" fill="none" xmlns="http://www.w3.org/2000/svg">
<path d="M7.47105 10.2831L5.23759 12.5166C4.40346 13.3507 3.92378 14.4857 3.93254 15.6785C3.94131 16.8713 4.41049 18.0132 5.28421 18.8599C6.13089 19.7337 7.27302 20.2028 8.46564 20.2116C9.68547 20.2206 10.7936 19.7679 11.6278 18.9338L13.8612 16.7003M16.714 13.9021L18.9475 11.6686C19.7816 10.8345 20.2613 9.69951 20.2525 8.5067C20.2438 7.31389 19.7746 6.172 18.9009 5.32527C18.0544 4.47878 16.9124 4.00957 15.7196 4.00081C14.5268 3.99204 13.3917 4.44449 12.5575 5.27865L10.3241 7.5121M8.70564 15.4198L15.406 8.71941M5.3362 5.2171L4.22989 4.11079M9.1777 3.26835L9.35869 1.44482M1.72177 9.08141L3.61243 8.89376M18.9408 18.5057L20.0471 19.612M15.0993 20.4545L14.9183 22.278M22.5553 14.6414L20.6646 14.8291" stroke="#11D619" stroke-width="2" stroke-linecap="round" stroke-linejoin="round"/>
</svg>
