<svg width="24" height="24" viewBox="0 0 24 24" fill="none" xmlns="http://www.w3.org/2000/svg">
<path d="M5.9999 22.2L16.1999 12.6L20.9999 17.4M5.9999 22.2H17.9999C19.9881 22.2 21.5999 20.5883 21.5999 18.6V12M5.9999 22.2C4.01168 22.2 2.3999 20.5883 2.3999 18.6V6.60005C2.3999 4.61182 4.01168 3.00005 5.9999 3.00005H12.5999M16.7999 4.14792C16.7999 2.85123 17.8744 1.80005 19.1999 1.80005C20.5254 1.80005 21.5999 2.85123 21.5999 4.14792C21.5999 5.44462 20.5254 6.4958 19.1999 6.4958M19.1999 9.69028V9.60005M9.5999 8.40005C9.5999 9.39416 8.79401 10.2 7.7999 10.2C6.80579 10.2 5.9999 9.39416 5.9999 8.40005C5.9999 7.40594 6.80579 6.60005 7.7999 6.60005C8.79401 6.60005 9.5999 7.40594 9.5999 8.40005Z" stroke="white" stroke-width="2" stroke-linecap="round" stroke-linejoin="round"/>
</svg>
